<?xml version="1.0" encoding="UTF-8" standalone="no"?><!DOCTYPE svg PUBLIC "-//W3C//DTD SVG 1.1//EN" "http://www.w3.org/Graphics/SVG/1.1/DTD/svg11.dtd"><svg width="100%" height="100%" viewBox="0 0 320 512" version="1.1" xmlns="http://www.w3.org/2000/svg" xmlns:xlink="http://www.w3.org/1999/xlink" xml:space="preserve" xmlns:serif="http://www.serif.com/" style="fill-rule:evenodd;clip-rule:evenodd;stroke-linejoin:round;stroke-miterlimit:2;"><path d="M48,64c-26.5,0 -48,21.5 -48,48l0,288c0,26.5 21.5,48 48,48l32,0c26.5,0 48,-21.5 48,-48l0,-288c0,-26.5 -21.5,-48 -48,-48l-32,0Zm192,0c-26.5,0 -48,21.5 -48,48l0,288c0,26.5 21.5,48 48,48l32,0c26.5,0 48,-21.5 48,-48l0,-288c0,-26.5 -21.5,-48 -48,-48l-32,0Z" style="fill:#c53dcc;fill-rule:nonzero;"/></svg>