<?xml version="1.0" encoding="UTF-8" standalone="no"?><!DOCTYPE svg PUBLIC "-//W3C//DTD SVG 1.1//EN" "http://www.w3.org/Graphics/SVG/1.1/DTD/svg11.dtd"><svg width="100%" height="100%" viewBox="0 0 640 512" version="1.1" xmlns="http://www.w3.org/2000/svg" xmlns:xlink="http://www.w3.org/1999/xlink" xml:space="preserve" xmlns:serif="http://www.serif.com/" style="fill-rule:evenodd;clip-rule:evenodd;stroke-linejoin:round;stroke-miterlimit:2;"><path d="M533.6,32.5c64.9,52.8 106.4,133.3 106.4,223.5c0,90.2 -41.5,170.8 -106.4,223.5c-10.3,8.4 -25.4,6.8 -33.8,-3.5c-8.4,-10.3 -6.8,-25.4 3.5,-33.8c54.2,-44 88.7,-111 88.7,-186.2c0,-75.2 -34.5,-142.2 -88.7,-186.3c-10.3,-8.4 -11.8,-23.5 -3.5,-33.8c8.3,-10.3 23.5,-11.8 33.8,-3.5l0,0.1Zm-60.5,74.5c43.2,35.2 70.9,88.9 70.9,149c0,60.1 -27.7,113.8 -70.9,149c-10.3,8.4 -25.4,6.8 -33.8,-3.5c-8.4,-10.3 -6.8,-25.4 3.5,-33.8c32.5,-26.4 53.2,-66.6 53.2,-111.7c0,-45.1 -20.7,-85.3 -53.2,-111.8c-10.3,-8.4 -11.8,-23.5 -3.5,-33.8c8.3,-10.3 23.5,-11.8 33.8,-3.5l0,0.1Zm-60.5,74.5c21.5,17.6 35.4,44.4 35.4,74.5c0,30.1 -13.9,56.9 -35.4,74.5c-10.3,8.4 -25.4,6.8 -33.8,-3.5c-8.4,-10.3 -6.8,-25.4 3.5,-33.8c10.8,-8.8 17.7,-22.2 17.7,-37.2c0,-15 -6.9,-28.4 -17.7,-37.3c-10.3,-8.4 -11.8,-23.5 -3.5,-33.8c8.3,-10.3 23.5,-11.8 33.8,-3.5l0,0.1Zm-111.5,-146.7c11.5,5.2 18.9,16.6 18.9,29.2l0,384c0,12.6 -7.4,24 -18.9,29.2c-11.5,5.2 -25,3.1 -34.4,-5.3l-134.9,-119.9l-67.8,0c-35.3,0 -64,-28.7 -64,-64l-0,-64c-0,-35.3 28.7,-64 64,-64l67.8,0l134.9,-119.9c9.4,-8.4 22.9,-10.4 34.4,-5.3Z" style="fill:#c53dcc;fill-rule:nonzero;"/></svg>