<?xml version="1.0" encoding="UTF-8" standalone="no"?><!DOCTYPE svg PUBLIC "-//W3C//DTD SVG 1.1//EN" "http://www.w3.org/Graphics/SVG/1.1/DTD/svg11.dtd"><svg width="100%" height="100%" viewBox="0 0 576 512" version="1.1" xmlns="http://www.w3.org/2000/svg" xmlns:xlink="http://www.w3.org/1999/xlink" xml:space="preserve" xmlns:serif="http://www.serif.com/" style="fill-rule:evenodd;clip-rule:evenodd;stroke-linejoin:round;stroke-miterlimit:2;"><path d="M301.1,34.8c11.5,5.2 18.9,16.6 18.9,29.2l0,384c0,12.6 -7.4,24 -18.9,29.2c-11.5,5.2 -25,3.1 -34.4,-5.3l-134.9,-119.9l-67.8,0c-35.3,0 -64,-28.7 -64,-64l-0,-64c-0,-35.3 28.7,-64 64,-64l67.8,0l134.9,-119.9c9.4,-8.4 22.9,-10.4 34.4,-5.3Zm123.9,132.2l55,55l55,-55c9.4,-9.4 24.6,-9.4 33.9,0c9.3,9.4 9.4,24.6 0,33.9l-55,55l55,55c9.4,9.4 9.4,24.6 0,33.9c-9.4,9.3 -24.6,9.4 -33.9,0l-55,-55l-55,55c-9.4,9.4 -24.6,9.4 -33.9,0c-9.3,-9.4 -9.4,-24.6 0,-33.9l55,-55l-55,-55c-9.4,-9.4 -9.4,-24.6 0,-33.9c9.4,-9.3 24.6,-9.4 33.9,0Z" style="fill:#c53dcc;fill-rule:nonzero;"/></svg>